<svg id="Objects" xmlns="http://www.w3.org/2000/svg" xmlns:xlink="http://www.w3.org/1999/xlink" viewBox="0 0 530.49 464.51"><defs><style>.cls-1{fill:none;}.cls-2{fill:#333f48;}.cls-3{fill:#6e858e;}.cls-4{fill:#7b949b;}.cls-5{fill:#546770;}.cls-10,.cls-6{fill:#fff;}.cls-6{opacity:0.06;}.cls-7{fill:#60757c;}.cls-8{fill:#5d6c75;}.cls-9{fill:#a4a6a8;}.cls-11{fill:#ffcf31;}.cls-12{fill:#fff575;}.cls-13{clip-path:url(#clip-path);}.cls-14{fill:#ffcf3b;}.cls-15{fill:#ffbc2c;}.cls-16{fill:#d57c28;}.cls-17{fill:#fecc37;}.cls-18{fill:#fff35a;}</style><clipPath id="clip-path" transform="translate(-81.77 -227.57)"><path class="cls-1" d="M237.13,518.92V381.75a79.72,79.72,0,1,1,159.44,0V518.92Z"/></clipPath></defs><rect class="cls-2" x="320.39" y="273.69" width="56.39" height="183.27"/><path class="cls-3" d="M612.26,380.44V533.71H223.64V380.44a93.21,93.21,0,0,1,93.21-93.2H519a93.06,93.06,0,0,1,69.9,31.55,94.05,94.05,0,0,1,15.68,24.64A92.81,92.81,0,0,1,612.26,380.44Z" transform="translate(-81.77 -227.57)"/><path class="cls-4" d="M604.62,343.43H298.34V330.62H597.82A91.7,91.7,0,0,1,604.62,343.43Z" transform="translate(-81.77 -227.57)"/><rect class="cls-5" x="216.58" y="182.9" width="313.91" height="40.42"/><path class="cls-6" d="M588.94,318.79H283.16V306H575.1A92.9,92.9,0,0,1,588.94,318.79Z" transform="translate(-81.77 -227.57)"/><path class="cls-7" d="M410.05,380.44v105H223.64v-105a93.21,93.21,0,0,1,186.41,0Z" transform="translate(-81.77 -227.57)"/><path class="cls-2" d="M237.13,518.92V381.75a79.72,79.72,0,1,1,159.44,0V518.92Z" transform="translate(-81.77 -227.57)"/><rect class="cls-7" y="300.22" width="530.49" height="12.82"/><polygon class="cls-8" points="530.49 257.83 530.49 313.04 0 313.04 0 300.22 141.88 300.22 141.88 306.13 328.29 306.13 328.29 257.83 530.49 257.83"/><polygon class="cls-9" points="462.12 0 406.75 0 382.28 0 373.73 0 373.73 169.61 406.75 169.61 406.75 48.45 462.12 48.45 462.12 0"/><polygon class="cls-10" points="465.42 0 410.05 0 385.58 0 381.75 0 381.75 169.61 410.05 169.61 410.05 48.45 465.42 48.45 465.42 0"/><ellipse class="cls-11" cx="394.44" cy="178.79" rx="27.52" ry="32.92"/><ellipse class="cls-12" cx="394.44" cy="178.79" rx="16.76" ry="20.05"/><g class="cls-13"><path class="cls-14" d="M451.48,377.3V512.54a5.81,5.81,0,0,1-5.82,5.82H256.08a5.72,5.72,0,0,1-3.28-1,5.8,5.8,0,0,1-2.53-4.8V377.3a5.73,5.73,0,0,1,1.1-3.4h0a5.76,5.76,0,0,1,4.71-2.41H445.66a5.81,5.81,0,0,1,5.44,3.75A5.63,5.63,0,0,1,451.48,377.3Z" transform="translate(-81.77 -227.57)"/><path class="cls-15" d="M451.48,377.3V512.54a5.81,5.81,0,0,1-5.82,5.82H256.08a5.72,5.72,0,0,1-3.28-1l198.3-142.1A5.63,5.63,0,0,1,451.48,377.3Z" transform="translate(-81.77 -227.57)"/><path class="cls-16" d="M451.48,379.43l-97.72,77.13a9,9,0,0,1-12.18-.5l-90.21-81.27h0a5.51,5.51,0,0,1,4.71-3.29H445.66c2.49,0,4.61,2.13,5.44,5.12Z" transform="translate(-81.77 -227.57)"/><path class="cls-17" d="M451.48,377.3l-97.72,56.44a11.62,11.62,0,0,1-12.18-.36L251.37,373.9h0a5.76,5.76,0,0,1,4.71-2.41H445.66a5.81,5.81,0,0,1,5.44,3.75Z" transform="translate(-81.77 -227.57)"/><rect class="cls-18" x="311.53" y="384.4" width="12.78" height="40.86" rx="6.02" transform="translate(-272.38 257.01) rotate(-60.77)"/></g><rect class="cls-2" x="283.22" y="452.23" width="130.45" height="12.28"/></svg>