<svg id="Capa_1" data-name="Capa 1" xmlns="http://www.w3.org/2000/svg" xmlns:xlink="http://www.w3.org/1999/xlink" viewBox="0 0 898 260.1"><defs><style>.cls-1{fill:#fff;}.cls-2{fill:#1d1d1b;}.cls-3{fill:#ed2331;}.cls-4{fill:#ec2026;fill-rule:evenodd;}.cls-5{fill:#79c000;}.cls-6{fill:#333f48;}.cls-7{fill:#1d1c1a;}</style></defs><path class="cls-1" d="M14.5,259.2A13.61,13.61,0,0,1,.9,245.6V14.5A13.55,13.55,0,0,1,14.5.9h869a13.61,13.61,0,0,1,13.6,13.6V245.6a13.61,13.61,0,0,1-13.6,13.6Z"/><path class="cls-2" d="M883.5,1.7a12.82,12.82,0,0,1,12.8,12.8V245.6a12.82,12.82,0,0,1-12.8,12.8H14.5A12.82,12.82,0,0,1,1.7,245.6V14.5A12.82,12.82,0,0,1,14.5,1.7h869m0-1.7H14.5A14.51,14.51,0,0,0,0,14.5V245.6a14.51,14.51,0,0,0,14.5,14.5h869A14.51,14.51,0,0,0,898,245.6V14.5A14.64,14.64,0,0,0,883.5,0Z"/><path class="cls-3" d="M835.4,201.5a24.87,24.87,0,0,0,5,.5,35.15,35.15,0,0,0,19.2-6.1c7.4-5,9.3-14.1,9.3-14.1-1.4,1.8-10.6,6.5-17.3,7.3a10.28,10.28,0,0,1-1.7.1c-5.2,0-7.9-2-7.9-2s-.1.7,1.7,3.1,1.6,3.7,1.6,3.7l-6.1-2c-3.7-1.2-14-1.9-24.3-1.9-4.4,0-8.8.1-12.6.4-12.6.9-45.1,9-56.4,15.4s-29.3,15.6-35.8,15.9h-.3c-4.9,0-2.8-6-2.8-6s-4,3.1-5.3,6.6c-1.1,3.1.3,6.7,6.8,6.7h.9c13-.7,31.8-13.9,51.4-22.2s39.4-13,57.6-13.5h3.1c16.1,0,23.3,3.8,23.3,3.8C843.5,199,835.4,201.5,835.4,201.5Z"/><path class="cls-3" d="M754.2,167.3c0,.3-1.5,6.1-1.5,6.1a27.07,27.07,0,0,0,6.8-4.5c2.6-2.6,2.7-7.5,2.7-7.5C759.7,164.9,754.2,167.1,754.2,167.3Z"/><path class="cls-3" d="M861.2,170.5a32.2,32.2,0,0,1-2-2.7s2.2-1.6,3.5-2.8,1.4-5.1-2.1-5.1h-.1c-3.5,0-6.6,4.2-7.6,6.1s-.2,1.7-2.6,2.2a7.18,7.18,0,0,1-1.9.2,2.64,2.64,0,0,1-1.3-.2s2.3-3.8.2-5.1a3.93,3.93,0,0,0-2.3-.5,12.66,12.66,0,0,0-4.9,1.1c-1,.6-4.6.4-7,1.1s-6.1,4.7-8.4,8.5a45.77,45.77,0,0,0-3.4,6.7,6.6,6.6,0,0,1-3.5,1.1h-.4c-1.8,0-1.8-.7-.6-3.2a44.85,44.85,0,0,1,3-5.9,17.89,17.89,0,0,0,8.9-6.1,56.83,56.83,0,0,0,7.5-14.9c.5-2.1-2.4-2.7-5.7-2.7h-.2c-3.3,0-9.3,1.1-13.9,10.5-4.6,9.8-9.9,20.5-9.9,21.3s-1,.8-2.1,1.1a.76.76,0,0,1-.4.1c-.7,0-1-.7-.1-2.2,1-1.7,6.4-11.6.8-13.2h-.1a15.35,15.35,0,0,0-5.2.8l6.9-17.1-11.8,6.9-10.9,25.2a14.24,14.24,0,0,0-.6,2.1c0,.5-1.2.9-2.5,1.1h-.2c-1,0-.8-1-.1-2.9s5.7-15.8,5.7-15.8l-7,3.6-.7,1.5s-.3-1.3-2.9-1.4h-.2c-2.7,0-9.7,3-13.4,11.5,0,0-2.4,5.4-2.6,7.7a3.15,3.15,0,0,1-1.7,1.3,3.09,3.09,0,0,1-.8.2c-.6,0-.7-.7-.1-3.1.8-3.3,4.8-14.9,4.8-14.9s-4.5,1.7-6.4,2.4-3.3,1.3-3.3,1.3-4.1,13.7-5.1,16.5.1,6.1,2.8,6.1c.2,0,.4-.1.7-.1,3.3-.6,9.4-5.5,9.4-5.5s.8,1.4,3.4,1.4a9,9,0,0,0,2.2-.2c4.5-1,6.2-3.2,6.2-3.2a2.79,2.79,0,0,0,2.4,1.2,4.94,4.94,0,0,0,1.5-.3c2.7-.9,8.1-4.7,8.1-4.7s.6,1.9,4.5,1.9h.4a14.26,14.26,0,0,0,6.7-1.7,14.07,14.07,0,0,0,1.8.1,15.56,15.56,0,0,0,6.1-1.3c3.9-1.7,4.2-2.9,4.2-2.9s.9,2.8,5.6,2.8h.2a17.2,17.2,0,0,0,8.5-2.4s.3,1.3,4.5,1.3a14.08,14.08,0,0,0,2-.1c6.1-.4,9.5-.4,12.6-4.8s5.2-8.2,5.2-8.2,3.6-.7,5.4-.9a10.85,10.85,0,0,0,2.3-.4l1.3,4.2s0,.5-2.1.5-6.8.1-9,2.4.3,7.3,4.5,7.5h.7c4.1,0,10.2-1.6,12.7-5.9C863.9,175.1,862.5,172.2,861.2,170.5Zm-32.3-17.2a3.12,3.12,0,0,1,1.3-.6.51.51,0,0,1,.5.4c.2,1-3.9,8.2-4.8,9.8a15.17,15.17,0,0,1-3.3,2.9Zm-56.8,29c-1.7,4-2.8,7.5-4.4,7.7-1.4,0,.3-5.5,3.9-13.5,0,0,1.1-2.5,2.3-2.5h.1C775.2,174.1,773.7,178.3,772.1,182.3Zm27.2-9c-.3.6-5.2,11.2-5.2,11.2a2.34,2.34,0,0,1-1.7.7c-1.1,0-.4-1.8.3-2.9s4.7-10.3,4.7-10.3.8-2.2,2.3-2.2S799.6,172.6,799.3,173.3Zm38.1-2.2-.1.2s-3.5,6.6-4.8,8.6c-1.1,2-1.6,2.2-2.6,2.2s-.1-1.8.6-3.5c.9-1.7,6.5-10.7,6.5-10.7s-.3,1.5.1,1.9S837.4,171.1,837.4,171.1Zm5.8-3.2c-.5,0-1-1.2-.7-2.2a2.07,2.07,0,0,1,.8-.2c.4,0,.7.2.8.8C844.3,167.5,843.6,167.9,843.2,167.9Zm5.9,13.2h-.5c-1.5,0-2.3-.7-2.2-1.8.2-1.3,5.6-1.2,6.7-1.2C853.1,178.1,850.9,180.9,849.1,181.1Zm9-15.7c-.1,0-.3-1.8.5-2.1a2.77,2.77,0,0,1,.9-.1,3.78,3.78,0,0,1,.8.1,3.44,3.44,0,0,1-1.3,1.2C858.1,165,858.1,165.3,858.1,165.4Z"/><path class="cls-3" d="M743.1,196.2c1.3-3.9,5.9-18.4,7.2-23s.3-6.4-2.8-6.7h-.1a4.87,4.87,0,0,0-1.2-.1,20.06,20.06,0,0,0-9.6,2.8c-2.9,1.8-5.3,3.2-9,3.2h-1.1c-4.4-.3-8.2-4.5-8.2-4.5-.7,4.6,3.9,8.8,5.2,9.6,1.3.6.5,2.5.5,2.5l-11.4,36.4s13.7-3.9,19.5-7.2A26.24,26.24,0,0,0,743.1,196.2Zm-15.6,10.3a5.85,5.85,0,0,1-3,1.4l8.9-28.3s1.2-5.1,3.6-6.9a4.23,4.23,0,0,1,2.4-.9c1.3,0,2,.9,1.6,2.7-.6,2.8-6.4,21.6-7.3,23.8C732.8,200.3,729.5,205.1,727.5,206.5Z"/><path class="cls-4" d="M837.3,75.2a2.22,2.22,0,0,0,.5-.4A5.76,5.76,0,0,0,837.3,75.2Zm7.8-31.3c2.6,21.1-5.4,29.2-7.3,30.9.7-.4,2.3-.9,6.4-1.6,0,2.6-11.4,21.5-14.7,23.5s-3.2-2.9-2-12.7c2-15.4,16.1-51.5,2-54.8-10.1-2.3-23.7,21.9-33.5,41.5.2-3.4,10.5-38-1.8-39.5-11.4-1.5-19.9,13.2-33.3,43,7-46.9-8.8-43-8.8-43-6.5-1.6-26.3,9.9-33.5,47.4-6.7,34.7,10.7,51.1,10.8,51.3,0,0-5,16.7-3.7,26.5,1.6,11.6,17.9-8.7,19.6-10.8,1.6-1.9,2.4-4.4,5.9-23.5s21.5-64.6,24.6-59.9c6.5,9.8-14.7,69.2-11,78.4,2.3,5.9,15-6.6,20.5-18.6,4.5-21.2,16.9-60.8,25.4-64.6,8.8-3.8-11.9,58.2,2.9,60.6,16.8,2.7,33.7-42.8,34.2-42.1s3.6,1.7,2.9,7.8C856.1,67.7,855.4,55.9,845.1,43.9ZM738.5,92.8c-6.3,31.3-6.4,28.7-6.4,28.7s-13.9-19.6-9.3-40.4c3.4-15.5,6.5-25.8,15.6-28.4C738.5,52.7,748.3,50.9,738.5,92.8Z"/><rect class="cls-2" x="673.7" y="25.1" width="1.7" height="208.9"/><rect class="cls-2" x="392.6" y="25.1" width="1.7" height="208.9"/><path class="cls-5" d="M361.2,220.4H33.1a6,6,0,0,1-6-6V45.7a6,6,0,0,1,6-6H361.2a6,6,0,0,1,6,6V214.4A6,6,0,0,1,361.2,220.4Z"/><path class="cls-6" d="M82.9,147.8c-2.5,4.1-5.8,6.1-9.7,6.1-7.6,0-13.3-6-13.3-13.9,0-6.9,4.4-13.9,12.8-13.9,6.5,0,8.9,4.2,10.2,6.4l.2.4H97.2l-.3-1a25.21,25.21,0,0,0-24.2-17.6A25.75,25.75,0,0,0,55,121.5a25.17,25.17,0,0,0-7.8,18.3c0,15.9,13.3,25.8,25.6,25.8,11.2,0,20.2-6.4,24.1-17.2l.4-1H83.1Zm43.4-33.5a25.6,25.6,0,1,0,25.5,25.6A25.44,25.44,0,0,0,126.3,114.3Zm.1,39.2a13,13,0,1,1,13-13A13,13,0,0,1,126.4,153.5Zm68-34a22.11,22.11,0,0,0-13.8-5.2c-13.9,0-24.6,11.4-24.6,25.6a25.55,25.55,0,1,0,51.1,0V94.5H194.3v25Zm-12.9,34a13,13,0,1,1,13-13A13,13,0,0,1,181.5,153.5Zm64.2-.8a15.5,15.5,0,0,1-18-4.3l36-15.2-1.4-3.4c-5.6-13.2-19.1-19.5-33.2-13.5S209,136.9,214.6,150s21.3,18.6,35.4,12.6a30,30,0,0,0,14.7-13.3L254.2,144A14.62,14.62,0,0,1,245.7,152.7Zm-12.4-26.5a12.84,12.84,0,0,1,14,2.6l-22.6,9.6A13.91,13.91,0,0,1,233.3,126.2ZM336.7,144a14.79,14.79,0,0,1-8.5,8.8,15.5,15.5,0,0,1-18-4.3l36-15.2-1.4-3.4c-5.6-13.2-19.1-19.5-33.2-13.5s-20.1,20.6-14.5,33.7,21.3,18.6,35.4,12.6a30,30,0,0,0,14.7-13.3Zm-20.9-17.8a12.84,12.84,0,0,1,14,2.6l-22.6,9.6A13.91,13.91,0,0,1,315.8,126.2ZM270,136.9v27.4h12.7V138.4c0-7.8,4.4-11.5,10.7-11.5V115.5C278.8,115.4,270,125.2,270,136.9Z"/><path class="cls-7" d="M494.5,66.7c-1-5.1-5.1-7.7-10.1-7.7-8.6,0-12.3,7.1-12.3,14.7,0,8.3,3.7,15.2,12.3,15.2,6.3,0,10-4.5,10.4-10.5h4.8c-.9,9-6.5,14.5-15.7,14.5-11.3,0-16.7-8.3-16.7-18.9s6-19.1,17.1-19.1c7.6,0,13.8,4.1,14.9,11.8Z"/><path class="cls-7" d="M528.2,91.9a5.48,5.48,0,0,1-3.1.7c-2.2,0-3.7-1.2-3.7-4.1a11.67,11.67,0,0,1-9.2,4.1c-4.8,0-8.7-2.1-8.7-7.4,0-5.9,4.4-7.2,8.9-8.1,4.8-.9,8.8-.6,8.8-3.9,0-3.8-3.1-4.4-5.8-4.4-3.7,0-6.3,1.1-6.5,5h-4.3c.3-6.5,5.3-8.8,11.1-8.8,4.7,0,9.8,1.1,9.8,7.2V85.7c0,2,0,2.9,1.4,2.9a3.45,3.45,0,0,0,1.3-.3Zm-7-13.4c-1.7,1.2-4.9,1.3-7.8,1.8s-5.3,1.5-5.3,4.7c0,2.8,2.4,3.9,5.1,3.9,5.7,0,8-3.6,8-5.9Z"/><path class="cls-7" d="M534.8,83.7c.2,3.9,3.5,5.1,7.1,5.1,2.7,0,6.3-.6,6.3-3.9s-4.3-3.9-8.6-4.9-8.6-2.4-8.6-7.4c0-5.3,5.2-7.5,9.8-7.5,5.8,0,10.4,1.8,10.8,8.2h-4.3c-.3-3.3-3.2-4.4-6.1-4.4-2.6,0-5.6.7-5.6,3.3,0,3.1,4.6,3.6,8.6,4.6,4.3,1,8.6,2.4,8.6,7.5,0,6.2-5.8,8.3-11.2,8.3-5.9,0-10.9-2.4-11.1-8.9Z"/><path class="cls-7" d="M580.8,91.9a5.48,5.48,0,0,1-3.1.7c-2.2,0-3.7-1.2-3.7-4.1a11.67,11.67,0,0,1-9.2,4.1c-4.8,0-8.7-2.1-8.7-7.4,0-5.9,4.4-7.2,8.9-8.1,4.8-.9,8.8-.6,8.8-3.9,0-3.8-3.1-4.4-5.8-4.4-3.7,0-6.3,1.1-6.5,5h-4.3c.3-6.5,5.3-8.8,11.1-8.8,4.7,0,9.8,1.1,9.8,7.2V85.7c0,2,0,2.9,1.4,2.9a3.45,3.45,0,0,0,1.3-.3Zm-7-13.4c-1.7,1.2-4.9,1.3-7.8,1.8s-5.3,1.5-5.3,4.7c0,2.8,2.4,3.9,5.1,3.9,5.7,0,8-3.6,8-5.9Z"/><path class="cls-7" d="M622.3,92H618V88.4h-.1c-1.4,2.9-4.8,4.2-8.4,4.2-8.1,0-12.1-6.4-12.1-13.8s4-13.6,12-13.6c2.7,0,6.5,1,8.5,4.1h.1V55.8h4.3Zm-12.1-3.2c5.8,0,8-5,8-9.9,0-5.2-2.3-9.9-8.3-9.9S602,74,602,79.1,604.6,88.8,610.2,88.8Z"/><path class="cls-7" d="M651.3,83.7c-1.2,5.8-5.3,8.9-11.2,8.9-8.4,0-12.3-5.8-12.6-13.8,0-7.9,5.2-13.6,12.3-13.6,9.3,0,12.1,8.7,11.9,15H632.1c-.2,4.6,2.4,8.6,8.2,8.6,3.5,0,6-1.7,6.8-5.1Zm-4.1-7.3a7.56,7.56,0,0,0-7.6-7.4c-4.5,0-7.2,3.4-7.5,7.4Z"/><path class="cls-7" d="M454.6,109h5.3l14.2,36.3h-5.3l-4-10.9H449.4l-4.1,10.9h-5Zm-3.7,21.3h12.3l-6.1-16.9H457Z"/><path class="cls-7" d="M477.1,119h4.3v3.6h.1c1.4-2.9,4.8-4.2,8.4-4.2,8.1,0,12.1,6.4,12.1,13.8s-4,13.7-12,13.7c-2.7,0-6.6-1-8.5-4.1h-.1v13.6h-4.3Zm12.2,3.2c-5.8,0-8,5-8,9.9,0,5.2,2.3,10,8.3,10s7.9-5,7.9-10.2C497.4,127,494.9,122.2,489.3,122.2Z"/><path class="cls-7" d="M528.9,145.3h-4.1v-4.2h-.1a9.06,9.06,0,0,1-8.5,4.8c-6.9,0-9.1-4-9.1-9.6V119h4.3v17.8a4.94,4.94,0,0,0,5.3,5.3c5.2,0,7.8-3.5,7.8-8.2V119h4.3l.1,26.3Z"/><path class="cls-7" d="M557.8,136.9c-1.2,5.8-5.3,9-11.2,9-8.4,0-12.4-5.8-12.6-13.8,0-7.9,5.2-13.7,12.4-13.7,9.3,0,12.2,8.7,11.9,15.1H538.6c-.2,4.6,2.4,8.6,8.2,8.6,3.6,0,6.1-1.7,6.8-5.1h4.2v-.1Zm-4.2-7.3a7.56,7.56,0,0,0-7.6-7.4c-4.5,0-7.2,3.4-7.5,7.4Z"/><path class="cls-7" d="M565.3,137c.2,3.9,3.5,5.1,7.1,5.1,2.7,0,6.4-.6,6.4-3.9s-4.3-3.9-8.6-4.9-8.6-2.4-8.6-7.4c0-5.3,5.2-7.5,9.8-7.5,5.8,0,10.4,1.8,10.8,8.2h-4.3c-.3-3.4-3.3-4.4-6.1-4.4-2.6,0-5.6.7-5.6,3.4,0,3.1,4.6,3.6,8.6,4.6,4.3,1,8.6,2.4,8.6,7.5,0,6.3-5.8,8.3-11.2,8.3-5.9,0-10.9-2.4-11.1-8.9h4.2V137Z"/><path class="cls-7" d="M594.1,119h5.2v3.8h-5.2v16.3c0,2,.6,2.3,3.3,2.3h2v3.8h-3.3c-4.5,0-6.3-.9-6.3-5.7V122.8h-4.5V119h4.5v-7.9h4.3Z"/><path class="cls-7" d="M627.4,145.2a5.48,5.48,0,0,1-3.1.7c-2.2,0-3.7-1.2-3.7-4.1a11.73,11.73,0,0,1-9.3,4.1c-4.8,0-8.7-2.1-8.7-7.4,0-6,4.4-7.2,8.9-8.1,4.8-.9,8.9-.6,8.9-3.9,0-3.8-3.1-4.4-5.8-4.4-3.7,0-6.4,1.1-6.6,5h-4.3c.3-6.5,5.3-8.8,11.1-8.8,4.7,0,9.9,1.1,9.9,7.2V139c0,2,0,3,1.4,3a3.45,3.45,0,0,0,1.3-.3v3.5Zm-7-13.5c-1.7,1.2-4.9,1.3-7.8,1.8s-5.3,1.5-5.3,4.7c0,2.8,2.4,3.9,5.1,3.9,5.7,0,8-3.6,8-6Z"/><path class="cls-7" d="M634.1,137c.2,3.9,3.5,5.1,7.1,5.1,2.7,0,6.4-.6,6.4-3.9s-4.3-3.9-8.6-4.9-8.6-2.4-8.6-7.4c0-5.3,5.2-7.5,9.8-7.5,5.8,0,10.4,1.8,10.8,8.2h-4.3c-.3-3.4-3.3-4.4-6.1-4.4-2.6,0-5.6.7-5.6,3.4,0,3.1,4.6,3.6,8.6,4.6,4.3,1,8.6,2.4,8.6,7.5,0,6.3-5.8,8.3-11.2,8.3-5.9,0-10.9-2.4-11.1-8.9h4.2V137Z"/><path class="cls-7" d="M529.3,167.2c11.5,0,17.3,9.1,17.3,19s-5.8,19-17.3,19-17.3-9.1-17.3-19S517.8,167.2,529.3,167.2Zm0,33.9c8.8,0,12.5-7.6,12.5-14.9s-3.7-14.9-12.5-14.9-12.5,7.6-12.5,14.9S520.5,201.1,529.3,201.1Z"/><path class="cls-7" d="M553.6,181.8h-4.4V178h4.4v-3.9c0-4.3,2.5-6.5,7.3-6.5a13.51,13.51,0,0,1,2.8.4v3.8a7.1,7.1,0,0,0-2.4-.4c-2.1,0-3.3.7-3.3,2.9V178h5.1v3.8H558v22.4h-4.3l-.1-22.4Zm13.5-8.5V168h4.3v5.3Zm0,31V178h4.3v26.2h-4.3Z"/><path class="cls-7" d="M595.9,186.4a6.08,6.08,0,0,0-6.5-5.2c-6.2,0-8.2,4.9-8.2,10.2,0,4.8,2.2,9.6,7.7,9.6,4.2,0,6.6-2.4,7.2-6.4h4.4c-1,6.4-5,10.2-11.6,10.2-8,0-12.3-5.6-12.3-13.4s4.1-14.1,12.4-14.1c5.9,0,10.7,2.8,11.3,9l-4.4.1Z"/><path class="cls-7" d="M609.9,173.3h-4.3V168h4.3Zm-4.3,4.7h4.3v26.2h-4.3Z"/><path class="cls-7" d="M639.9,204.2a5.48,5.48,0,0,1-3.1.7c-2.2,0-3.7-1.2-3.7-4.1a11.67,11.67,0,0,1-9.2,4.1c-4.8,0-8.7-2.1-8.7-7.4,0-5.9,4.4-7.2,8.9-8.1,4.8-.9,8.8-.6,8.8-3.9,0-3.8-3.1-4.4-5.8-4.4-3.7,0-6.3,1.1-6.5,5h-4.3c.3-6.5,5.3-8.8,11.1-8.8,4.7,0,9.8,1.1,9.8,7.2V198c0,2,0,2.9,1.4,2.9a3.45,3.45,0,0,0,1.3-.3Zm-7-13.5c-1.7,1.2-4.9,1.3-7.8,1.8s-5.3,1.5-5.3,4.7c0,2.8,2.4,3.9,5.1,3.9,5.7,0,8-3.6,8-5.9Z"/><path class="cls-7" d="M644.1,168h4.3v36.2h-4.3Z"/><rect class="cls-1" x="688.27" y="14.94" width="191.74" height="226.01"/><image width="1304" height="2102" transform="translate(722.33 27.64) scale(0.1)" xlink:href="../../../Real-Madrid-Emblema.png"/></svg>