<?xml version="1.0" encoding="utf-8"?>
<!-- Generator: Adobe Illustrator 24.3.0, SVG Export Plug-In . SVG Version: 6.00 Build 0)  -->
<svg version="1.1" id="Capa_1" xmlns="http://www.w3.org/2000/svg" xmlns:xlink="http://www.w3.org/1999/xlink" x="0px" y="0px"
	 viewBox="0 0 897.9 260.1" style="enable-background:new 0 0 897.9 260.1;" xml:space="preserve">
<style type="text/css">
	.st0{fill:#FFFFFF;}
	.st1{fill:#1D1D1B;}
	.st2{fill:#ED2331;}
	.st3{fill-rule:evenodd;clip-rule:evenodd;fill:#EC2026;}
	.st4{fill:#79C000;}
	.st5{fill:#333F48;}
	.st6{fill:#1D1C1A;}
</style>
<g>
	<path class="st0" d="M14.5,259.2c-7.5,0-13.6-6.1-13.6-13.6V14.5C0.8,7,7,0.9,14.5,0.9h869c7.5,0,13.6,6.1,13.6,13.6v231.1
		c0,7.5-6.1,13.6-13.6,13.6H14.5z"/>
	<path class="st1" d="M883.5,1.7c7,0,12.8,5.7,12.8,12.8v231.1c0,7-5.7,12.8-12.8,12.8h-869c-7,0-12.8-5.7-12.8-12.8V14.5
		c0-7,5.7-12.8,12.8-12.8L883.5,1.7 M883.5,0h-869C6.5,0,0,6.5,0,14.5v231.1c0,8,6.5,14.5,14.5,14.5h869c8,0,14.5-6.5,14.5-14.5
		V14.5C897.9,6.5,891.4,0,883.5,0L883.5,0z"/>
	<g>
		<path class="st2" d="M835.4,201.5c1.5,0.3,3.1,0.5,5,0.5c5.5,0,12.4-1.6,19.2-6.1c7.4-5,9.3-14.1,9.3-14.1
			c-1.4,1.8-10.6,6.5-17.3,7.3c-0.6,0.1-1.2,0.1-1.7,0.1c-5.2,0-7.9-2-7.9-2s-0.1,0.7,1.7,3.1c1.8,2.4,1.6,3.7,1.6,3.7
			s-0.9-0.3-6.1-2c-3.7-1.2-14-1.9-24.3-1.9c-4.4,0-8.8,0.1-12.6,0.4c-12.6,0.9-45.1,9-56.4,15.4c-11.2,6.3-29.3,15.6-35.8,15.9
			c-0.1,0-0.2,0-0.3,0c-4.9,0-2.8-6-2.8-6s-4,3.1-5.3,6.6c-1.1,3.1,0.3,6.7,6.8,6.7c0.3,0,0.6,0,0.9,0c13-0.7,31.8-13.9,51.4-22.2
			c19.6-8.4,39.4-13,57.6-13.5c1,0,2.1,0,3.1,0c16.1,0,23.3,3.8,23.3,3.8C843.5,199,835.4,201.5,835.4,201.5z"/>
		<path class="st2" d="M754.2,167.3c0,0.3-1.5,6.1-1.5,6.1s4.2-1.9,6.8-4.5c2.6-2.6,2.7-7.5,2.7-7.5
			C759.7,164.9,754.2,167.1,754.2,167.3z"/>
		<path class="st2" d="M861.2,170.5c-1.3-1.6-2-2.7-2-2.7s2.2-1.6,3.5-2.8c1.2-1.2,1.4-5.1-2.1-5.1h-0.1c-3.5,0-6.6,4.2-7.6,6.1
			c-0.9,1.8-0.2,1.7-2.6,2.2c-0.8,0.2-1.4,0.2-1.9,0.2c-1,0-1.3-0.2-1.3-0.2s2.3-3.8,0.2-5.1c-0.5-0.4-1.4-0.5-2.3-0.5
			c-2,0-4.1,0.7-4.9,1.1c-1,0.6-4.6,0.4-7,1.1c-2.3,0.7-6.1,4.7-8.4,8.5c-2.3,3.8-3.4,6.7-3.4,6.7s-1.3,1-3.5,1.1
			c-0.1,0-0.3,0-0.4,0c-1.8,0-1.8-0.7-0.6-3.2c1.1-2.8,3-5.9,3-5.9s5.4-1.4,8.9-6.1c3.5-4.6,7-12.7,7.5-14.9
			c0.5-2.1-2.4-2.7-5.7-2.7c-0.1,0-0.1,0-0.2,0c-3.3,0-9.3,1.1-13.9,10.5c-4.6,9.8-9.9,20.5-9.9,21.3c0,0.7-1,0.8-2.1,1.1
			c-0.2,0.1-0.3,0.1-0.4,0.1c-0.7,0-1-0.7-0.1-2.2c1-1.7,6.4-11.6,0.8-13.2h-0.1c-0.5,0-3.3,0-5.2,0.8l6.9-17.1l-11.8,6.9
			l-10.9,25.2c0,0-0.6,1.7-0.6,2.1c0,0.5-1.2,0.9-2.5,1.1c0,0-0.1,0-0.2,0c-1,0-0.8-1-0.1-2.9c0.7-1.9,5.7-15.8,5.7-15.8l-7,3.6
			l-0.7,1.5c0,0-0.3-1.3-2.9-1.4c-0.1,0-0.1,0-0.2,0c-2.7,0-9.7,3-13.4,11.5c0,0-2.4,5.4-2.6,7.7c0,0-0.4,0.8-1.7,1.3
			c-0.3,0.1-0.6,0.2-0.8,0.2c-0.6,0-0.7-0.7-0.1-3.1c0.8-3.3,4.8-14.9,4.8-14.9s-4.5,1.7-6.4,2.4c-1.8,0.8-3.3,1.3-3.3,1.3
			s-4.1,13.7-5.1,16.5c-0.9,2.7,0.1,6.1,2.8,6.1c0.2,0,0.4-0.1,0.7-0.1c3.3-0.6,9.4-5.5,9.4-5.5s0.8,1.4,3.4,1.4
			c0.6,0,1.4,0,2.2-0.2c4.5-1,6.2-3.2,6.2-3.2s0.7,1.2,2.4,1.2c0.4,0,0.9-0.1,1.5-0.3c2.7-0.9,8.1-4.7,8.1-4.7s0.6,1.9,4.5,1.9
			c0.1,0,0.3,0,0.4,0c4.4-0.2,6.7-1.7,6.7-1.7s0.7,0.1,1.8,0.1c1.5,0,3.9-0.3,6.1-1.3c3.9-1.7,4.2-2.9,4.2-2.9s0.9,2.8,5.6,2.8
			c0.1,0,0.1,0,0.2,0c4.8,0,8.5-2.4,8.5-2.4s0.3,1.3,4.5,1.3c0.6,0,1.3,0,2-0.1c6.1-0.4,9.5-0.4,12.6-4.8c3.1-4.4,5.2-8.2,5.2-8.2
			s3.6-0.7,5.4-0.9c1.8-0.2,2.3-0.4,2.3-0.4l1.3,4.2c0,0,0,0.5-2.1,0.5c-2.1,0.1-6.8,0.1-9,2.4s0.3,7.3,4.5,7.5c0.2,0,0.5,0,0.7,0
			c4.1,0,10.2-1.6,12.7-5.9C863.9,175.1,862.5,172.2,861.2,170.5z M828.9,153.3c0,0,0.8-0.6,1.3-0.6c0.2,0,0.4,0.1,0.5,0.4
			c0.2,1-3.9,8.2-4.8,9.8c-1,1.4-3.3,2.9-3.3,2.9L828.9,153.3z M772.1,182.3c-1.7,4-2.8,7.5-4.4,7.7c-1.4,0,0.3-5.5,3.9-13.5
			c0,0,1.1-2.5,2.3-2.5h0.1C775.2,174.1,773.7,178.3,772.1,182.3z M799.3,173.3c-0.3,0.6-5.2,11.2-5.2,11.2s-0.6,0.7-1.7,0.7
			c-1.1,0-0.4-1.8,0.3-2.9c0.6-1.2,4.7-10.3,4.7-10.3s0.8-2.2,2.3-2.2C801.3,169.8,799.6,172.6,799.3,173.3z M837.4,171.1l-0.1,0.2
			c0,0-3.5,6.6-4.8,8.6c-1.1,2-1.6,2.2-2.6,2.2s-0.1-1.8,0.6-3.5c0.9-1.7,6.5-10.7,6.5-10.7s-0.3,1.5,0.1,1.9
			C837.6,170.2,837.4,171.1,837.4,171.1z M843.2,167.9c-0.5,0-1-1.2-0.7-2.2c0,0,0.4-0.2,0.8-0.2c0.4,0,0.7,0.2,0.8,0.8
			C844.3,167.5,843.6,167.9,843.2,167.9z M849.1,181.1c-0.1,0-0.3,0-0.5,0c-1.5,0-2.3-0.7-2.2-1.8c0.2-1.3,5.6-1.2,6.7-1.2
			C853.1,178.1,850.9,180.9,849.1,181.1z M858.1,165.4c-0.1,0-0.3-1.8,0.5-2.1c0.3-0.1,0.6-0.1,0.9-0.1c0.4,0,0.8,0.1,0.8,0.1
			s-0.3,0.6-1.3,1.2C858.1,165,858.1,165.3,858.1,165.4z"/>
		<path class="st2" d="M743.1,196.2c1.3-3.9,5.9-18.4,7.2-23c1.3-4.5,0.3-6.4-2.8-6.7h-0.1c-0.4-0.1-0.8-0.1-1.2-0.1
			c-3,0-6.8,1.1-9.6,2.8c-2.9,1.8-5.3,3.2-9,3.2c-0.3,0-0.7,0-1.1,0c-4.4-0.3-8.2-4.5-8.2-4.5c-0.7,4.6,3.9,8.8,5.2,9.6
			c1.3,0.6,0.5,2.5,0.5,2.5l-11.4,36.4c0,0,13.7-3.9,19.5-7.2S741.7,200.1,743.1,196.2z M727.5,206.5c-1.9,1.4-3,1.4-3,1.4l8.9-28.3
			c0,0,1.2-5.1,3.6-6.9c0.8-0.6,1.7-0.9,2.4-0.9c1.3,0,2,0.9,1.6,2.7c-0.6,2.8-6.4,21.6-7.3,23.8
			C732.8,200.3,729.5,205.1,727.5,206.5z"/>
		<g>
			<path class="st3" d="M837.3,75.2c0,0,0.2-0.1,0.5-0.4C837.4,75.1,837.3,75.2,837.3,75.2z M845.1,43.9c2.6,21.1-5.4,29.2-7.3,30.9
				c0.7-0.4,2.3-0.9,6.4-1.6c0,2.6-11.4,21.5-14.7,23.5s-3.2-2.9-2-12.7c2-15.4,16.1-51.5,2-54.8c-10.1-2.3-23.7,21.9-33.5,41.5
				c0.2-3.4,10.5-38-1.8-39.5c-11.4-1.5-19.9,13.2-33.3,43c7-46.9-8.8-43-8.8-43c-6.5-1.6-26.3,9.9-33.5,47.4
				c-6.7,34.7,10.7,51.1,10.8,51.3c0,0-5,16.7-3.7,26.5c1.6,11.6,17.9-8.7,19.6-10.8c1.6-1.9,2.4-4.4,5.9-23.5s21.5-64.6,24.6-59.9
				c6.5,9.8-14.7,69.2-11,78.4c2.3,5.9,15-6.6,20.5-18.6c4.5-21.2,16.9-60.8,25.4-64.6c8.8-3.8-11.9,58.2,2.9,60.6
				c16.8,2.7,33.7-42.8,34.2-42.1c0.5,0.8,3.6,1.7,2.9,7.8C856.1,67.7,855.4,55.9,845.1,43.9z M738.5,92.8
				c-6.3,31.3-6.4,28.7-6.4,28.7s-13.9-19.6-9.3-40.4c3.4-15.5,6.5-25.8,15.6-28.4C738.5,52.7,748.3,50.9,738.5,92.8z"/>
		</g>
	</g>
	<rect x="673.7" y="25.1" class="st1" width="1.7" height="208.9"/>
	<rect x="392.6" y="25.1" class="st1" width="1.7" height="208.9"/>
	<path class="st4" d="M361.2,220.4H33.1c-3.3,0-6-2.7-6-6V45.7c0-3.3,2.7-6,6-6h328.1c3.3,0,6,2.7,6,6v168.7
		C367.2,217.7,364.5,220.4,361.2,220.4z"/>
	<path class="st5" d="M82.9,147.8c-2.5,4.1-5.8,6.1-9.7,6.1c-7.6,0-13.3-6-13.3-13.9c0-6.9,4.4-13.9,12.8-13.9
		c6.5,0,8.9,4.2,10.2,6.4l0.2,0.4h14.1l-0.3-1c-4.3-13-15.7-17.6-24.2-17.6c-6.5,0-12.9,2.6-17.7,7.2c-5,4.8-7.8,11.3-7.8,18.3
		c0,15.9,13.3,25.8,25.6,25.8c11.2,0,20.2-6.4,24.1-17.2l0.4-1H83.1L82.9,147.8z M126.3,114.3c-14.2,0-25.5,11.4-25.5,25.6
		c0,14.1,11.3,25.6,25.4,25.6c14.2,0,25.6-11.5,25.6-25.6S140.4,114.3,126.3,114.3z M126.4,153.5c-7.2,0-13-5.8-13-13s5.8-13,13-13
		c7.1,0,13,5.8,13,13S133.5,153.5,126.4,153.5z M194.4,119.5c-2.9-2.4-7.8-5.2-13.8-5.2c-13.9,0-24.6,11.4-24.6,25.6
		c0,14.1,11.4,25.6,25.5,25.6c14.2,0,25.6-11.5,25.6-25.6V94.5h-12.8v25H194.4z M181.5,153.5c-7.2,0-13-5.8-13-13s5.8-13,13-13
		s13,5.8,13,13S188.7,153.5,181.5,153.5z M245.7,152.7c-6.3,2.7-13.8,0.9-18-4.3l36-15.2l-1.4-3.4c-5.6-13.2-19.1-19.5-33.2-13.5
		c-14.1,6-20.1,20.6-14.5,33.7c5.6,13.2,21.3,18.6,35.4,12.6c6.5-2.8,11.8-7.7,14.7-13.3l-10.5-5.3
		C252.5,148.4,249.6,151.1,245.7,152.7z M233.3,126.2c5.3-2.2,10.5-0.7,14,2.6l-22.6,9.6C225,133.1,228.1,128.4,233.3,126.2z
		 M336.7,144c-1.7,4.5-4.6,7.1-8.5,8.8c-6.3,2.7-13.8,0.9-18-4.3l36-15.2l-1.4-3.4c-5.6-13.2-19.1-19.5-33.2-13.5
		s-20.1,20.6-14.5,33.7c5.6,13.2,21.3,18.6,35.4,12.6c6.5-2.8,11.8-7.7,14.7-13.3L336.7,144z M315.8,126.2c5.3-2.2,10.5-0.7,14,2.6
		l-22.6,9.6C307.5,133.1,310.6,128.4,315.8,126.2z M270,136.9v27.4h12.7v-25.9c0-7.8,4.4-11.5,10.7-11.5v-11.4
		C278.8,115.4,270,125.2,270,136.9z"/>
	<g>
		<g>
			<path class="st6" d="M494.5,66.7c-1-5.1-5.1-7.7-10.1-7.7c-8.6,0-12.3,7.1-12.3,14.7c0,8.3,3.7,15.2,12.3,15.2
				c6.3,0,10-4.5,10.4-10.5h4.8c-0.9,9-6.5,14.5-15.7,14.5c-11.3,0-16.7-8.3-16.7-18.9c0-10.5,6-19.1,17.1-19.1
				c7.6,0,13.8,4.1,14.9,11.8H494.5z"/>
			<path class="st6" d="M528.2,91.9c-0.8,0.5-1.7,0.7-3.1,0.7c-2.2,0-3.7-1.2-3.7-4.1c-2.4,2.8-5.6,4.1-9.2,4.1
				c-4.8,0-8.7-2.1-8.7-7.4c0-5.9,4.4-7.2,8.9-8.1c4.8-0.9,8.8-0.6,8.8-3.9c0-3.8-3.1-4.4-5.8-4.4c-3.7,0-6.3,1.1-6.5,5h-4.3
				c0.3-6.5,5.3-8.8,11.1-8.8c4.7,0,9.8,1.1,9.8,7.2v13.5c0,2,0,2.9,1.4,2.9c0.4,0,0.8-0.1,1.3-0.3V91.9z M521.2,78.5
				c-1.7,1.2-4.9,1.3-7.8,1.8c-2.8,0.5-5.3,1.5-5.3,4.7c0,2.8,2.4,3.9,5.1,3.9c5.7,0,8-3.6,8-5.9V78.5z"/>
			<path class="st6" d="M534.8,83.7c0.2,3.9,3.5,5.1,7.1,5.1c2.7,0,6.3-0.6,6.3-3.9s-4.3-3.9-8.6-4.9s-8.6-2.4-8.6-7.4
				c0-5.3,5.2-7.5,9.8-7.5c5.8,0,10.4,1.8,10.8,8.2h-4.3c-0.3-3.3-3.2-4.4-6.1-4.4c-2.6,0-5.6,0.7-5.6,3.3c0,3.1,4.6,3.6,8.6,4.6
				c4.3,1,8.6,2.4,8.6,7.5c0,6.2-5.8,8.3-11.2,8.3c-5.9,0-10.9-2.4-11.1-8.9C530.5,83.7,534.8,83.7,534.8,83.7z"/>
			<path class="st6" d="M580.8,91.9c-0.8,0.5-1.7,0.7-3.1,0.7c-2.2,0-3.7-1.2-3.7-4.1c-2.4,2.8-5.6,4.1-9.2,4.1
				c-4.8,0-8.7-2.1-8.7-7.4c0-5.9,4.4-7.2,8.9-8.1c4.8-0.9,8.8-0.6,8.8-3.9c0-3.8-3.1-4.4-5.8-4.4c-3.7,0-6.3,1.1-6.5,5h-4.3
				c0.3-6.5,5.3-8.8,11.1-8.8c4.7,0,9.8,1.1,9.8,7.2v13.5c0,2,0,2.9,1.4,2.9c0.4,0,0.8-0.1,1.3-0.3V91.9z M573.8,78.5
				c-1.7,1.2-4.9,1.3-7.8,1.8c-2.8,0.5-5.3,1.5-5.3,4.7c0,2.8,2.4,3.9,5.1,3.9c5.7,0,8-3.6,8-5.9V78.5z"/>
			<path class="st6" d="M622.3,92H618v-3.6h-0.1c-1.4,2.9-4.8,4.2-8.4,4.2c-8.1,0-12.1-6.4-12.1-13.8s4-13.6,12-13.6
				c2.7,0,6.5,1,8.5,4.1h0.1V55.8h4.3V92z M610.2,88.8c5.8,0,8-5,8-9.9c0-5.2-2.3-9.9-8.3-9.9c-5.9,0-7.9,5-7.9,10.1
				C602,84.1,604.6,88.8,610.2,88.8z"/>
			<path class="st6" d="M651.3,83.7c-1.2,5.8-5.3,8.9-11.2,8.9c-8.4,0-12.3-5.8-12.6-13.8c0-7.9,5.2-13.6,12.3-13.6
				c9.3,0,12.1,8.7,11.9,15h-19.6c-0.2,4.6,2.4,8.6,8.2,8.6c3.5,0,6-1.7,6.8-5.1H651.3z M647.2,76.4c-0.2-4.1-3.3-7.4-7.6-7.4
				c-4.5,0-7.2,3.4-7.5,7.4H647.2z"/>
		</g>
		<g>
			<path class="st6" d="M454.6,109h5.3l14.2,36.3h-5.3l-4-10.9h-15.4l-4.1,10.9h-5L454.6,109z M450.9,130.3h12.3l-6.1-16.9H457
				L450.9,130.3z"/>
			<path class="st6" d="M477.1,119h4.3v3.6h0.1c1.4-2.9,4.8-4.2,8.4-4.2c8.1,0,12.1,6.4,12.1,13.8s-4,13.7-12,13.7
				c-2.7,0-6.6-1-8.5-4.1h-0.1v13.6h-4.3V119z M489.3,122.2c-5.8,0-8,5-8,9.9c0,5.2,2.3,10,8.3,10c5.9,0,7.9-5,7.9-10.2
				C497.4,127,494.9,122.2,489.3,122.2z"/>
			<path class="st6" d="M528.9,145.3h-4.1v-4.2h-0.1c-1.8,3.3-4.8,4.8-8.5,4.8c-6.9,0-9.1-4-9.1-9.6V119h4.3v17.8
				c0,3.2,2,5.3,5.3,5.3c5.2,0,7.8-3.5,7.8-8.2V119h4.3L528.9,145.3L528.9,145.3z"/>
			<path class="st6" d="M557.8,136.9c-1.2,5.8-5.3,9-11.2,9c-8.4,0-12.4-5.8-12.6-13.8c0-7.9,5.2-13.7,12.4-13.7
				c9.3,0,12.2,8.7,11.9,15.1h-19.7c-0.2,4.6,2.4,8.6,8.2,8.6c3.6,0,6.1-1.7,6.8-5.1h4.2L557.8,136.9L557.8,136.9z M553.6,129.6
				c-0.2-4.1-3.3-7.4-7.6-7.4c-4.5,0-7.2,3.4-7.5,7.4H553.6z"/>
			<path class="st6" d="M565.3,137c0.2,3.9,3.5,5.1,7.1,5.1c2.7,0,6.4-0.6,6.4-3.9c0-3.4-4.3-3.9-8.6-4.9s-8.6-2.4-8.6-7.4
				c0-5.3,5.2-7.5,9.8-7.5c5.8,0,10.4,1.8,10.8,8.2h-4.3c-0.3-3.4-3.3-4.4-6.1-4.4c-2.6,0-5.6,0.7-5.6,3.4c0,3.1,4.6,3.6,8.6,4.6
				c4.3,1,8.6,2.4,8.6,7.5c0,6.3-5.8,8.3-11.2,8.3c-5.9,0-10.9-2.4-11.1-8.9h4.2L565.3,137L565.3,137z"/>
			<path class="st6" d="M594.1,119h5.2v3.8h-5.2v16.3c0,2,0.6,2.3,3.3,2.3h2v3.8h-3.3c-4.5,0-6.3-0.9-6.3-5.7v-16.7h-4.5V119h4.5
				v-7.9h4.3V119z"/>
			<path class="st6" d="M627.4,145.2c-0.8,0.5-1.7,0.7-3.1,0.7c-2.2,0-3.7-1.2-3.7-4.1c-2.4,2.8-5.6,4.1-9.3,4.1
				c-4.8,0-8.7-2.1-8.7-7.4c0-6,4.4-7.2,8.9-8.1c4.8-0.9,8.9-0.6,8.9-3.9c0-3.8-3.1-4.4-5.8-4.4c-3.7,0-6.4,1.1-6.6,5h-4.3
				c0.3-6.5,5.3-8.8,11.1-8.8c4.7,0,9.9,1.1,9.9,7.2V139c0,2,0,3,1.4,3c0.4,0,0.8-0.1,1.3-0.3L627.4,145.2L627.4,145.2z
				 M620.4,131.7c-1.7,1.2-4.9,1.3-7.8,1.8c-2.8,0.5-5.3,1.5-5.3,4.7c0,2.8,2.4,3.9,5.1,3.9c5.7,0,8-3.6,8-6V131.7z"/>
			<path class="st6" d="M634.1,137c0.2,3.9,3.5,5.1,7.1,5.1c2.7,0,6.4-0.6,6.4-3.9c0-3.4-4.3-3.9-8.6-4.9s-8.6-2.4-8.6-7.4
				c0-5.3,5.2-7.5,9.8-7.5c5.8,0,10.4,1.8,10.8,8.2h-4.3c-0.3-3.4-3.3-4.4-6.1-4.4c-2.6,0-5.6,0.7-5.6,3.4c0,3.1,4.6,3.6,8.6,4.6
				c4.3,1,8.6,2.4,8.6,7.5c0,6.3-5.8,8.3-11.2,8.3c-5.9,0-10.9-2.4-11.1-8.9h4.2L634.1,137L634.1,137z"/>
		</g>
		<g>
			<path class="st6" d="M529.3,167.2c11.5,0,17.3,9.1,17.3,19c0,9.8-5.8,19-17.3,19s-17.3-9.1-17.3-19S517.8,167.2,529.3,167.2z
				 M529.3,201.1c8.8,0,12.5-7.6,12.5-14.9s-3.7-14.9-12.5-14.9s-12.5,7.6-12.5,14.9S520.5,201.1,529.3,201.1z"/>
			<path class="st6" d="M553.6,181.8h-4.4V178h4.4v-3.9c0-4.3,2.5-6.5,7.3-6.5c0.8,0,2,0.2,2.8,0.4v3.8c-0.8-0.3-1.7-0.4-2.4-0.4
				c-2.1,0-3.3,0.7-3.3,2.9v3.7h5.1v3.8H558v22.4h-4.3L553.6,181.8L553.6,181.8z M567.1,173.3V168h4.3v5.3H567.1z M567.1,204.3V178
				h4.3v26.2h-4.3V204.3z"/>
			<path class="st6" d="M595.9,186.4c-0.7-3.3-2.9-5.2-6.5-5.2c-6.2,0-8.2,4.9-8.2,10.2c0,4.8,2.2,9.6,7.7,9.6
				c4.2,0,6.6-2.4,7.2-6.4h4.4c-1,6.4-5,10.2-11.6,10.2c-8,0-12.3-5.6-12.3-13.4c0-7.9,4.1-14.1,12.4-14.1c5.9,0,10.7,2.8,11.3,9
				L595.9,186.4L595.9,186.4z"/>
			<path class="st6" d="M609.9,173.3h-4.3V168h4.3V173.3z M605.6,178h4.3v26.2h-4.3V178z"/>
			<path class="st6" d="M639.9,204.2c-0.8,0.5-1.7,0.7-3.1,0.7c-2.2,0-3.7-1.2-3.7-4.1c-2.4,2.8-5.6,4.1-9.2,4.1
				c-4.8,0-8.7-2.1-8.7-7.4c0-5.9,4.4-7.2,8.9-8.1c4.8-0.9,8.8-0.6,8.8-3.9c0-3.8-3.1-4.4-5.8-4.4c-3.7,0-6.3,1.1-6.5,5h-4.3
				c0.3-6.5,5.3-8.8,11.1-8.8c4.7,0,9.8,1.1,9.8,7.2V198c0,2,0,2.9,1.4,2.9c0.4,0,0.8-0.1,1.3-0.3V204.2z M632.9,190.7
				c-1.7,1.2-4.9,1.3-7.8,1.8c-2.8,0.5-5.3,1.5-5.3,4.7c0,2.8,2.4,3.9,5.1,3.9c5.7,0,8-3.6,8-5.9V190.7z"/>
			<path class="st6" d="M644.1,168h4.3v36.2h-4.3V168z"/>
		</g>
	</g>
</g>
</svg>
